HIERARCHY
ROOT Hips
{
	OFFSET 0.000000 0.000000 0.000000
	CHANNELS 6 Xposition Yposition Zposition Xrotation Yrotation Zrotation
	JOINT LeftUpLeg_virtual
	{
		OFFSET 0.000000 0.000000 0.000000
		CHANNELS 3 Xrotation Yrotation Zrotation
		JOINT LeftUpLeg
		{
			OFFSET 13.026900 -6.336304 -1.092800
			CHANNELS 3 Xrotation Yrotation Zrotation
			JOINT LeftLeg
			{
				OFFSET 0.524474 -46.096886 9.782700
				CHANNELS 3 Xrotation Yrotation Zrotation
				JOINT LeftFoot
				{
					OFFSET -0.524474 -53.427422 -12.948200
					CHANNELS 3 Xrotation Yrotation Zrotation
					JOINT LeftToeBase
					{
						OFFSET 0.192200 -14.009700 16.364100
						CHANNELS 3 Xrotation Yrotation Zrotation
						JOINT LeftToe_End
						{
							OFFSET -1.784700 -0.561700 9.474800
							CHANNELS 3 Xrotation Yrotation Zrotation
							End Site
							{
								OFFSET 0 0 0
							}
						}
					}
				}
			}
		}
	}
	JOINT RightUpLeg_virtual
	{
		OFFSET 0.000000 0.000000 0.000000
		CHANNELS 3 Xrotation Yrotation Zrotation
		JOINT RightUpLeg
		{
			OFFSET -12.883000 -6.336304 -1.092800
			CHANNELS 3 Xrotation Yrotation Zrotation
			JOINT RightLeg
			{
				OFFSET -0.524587 -46.096825 9.782800
				CHANNELS 3 Xrotation Yrotation Zrotation
				JOINT RightFoot
				{
					OFFSET 0.524587 -53.427383 -12.948300
					CHANNELS 3 Xrotation Yrotation Zrotation
					JOINT RightToeBase
					{
						OFFSET -0.192200 -14.009700 16.364100
						CHANNELS 3 Xrotation Yrotation Zrotation
						JOINT RightToe_End
						{
							OFFSET 1.784700 -0.561700 9.474800
							CHANNELS 3 Xrotation Yrotation Zrotation
							End Site
							{
								OFFSET 0 0 0
							}
						}
					}
				}
			}
		}
	}
	JOINT Spine_virtual
	{
		OFFSET 0.000000 0.000000 0.000000
		CHANNELS 3 Xrotation Yrotation Zrotation
		JOINT Spine
		{
			OFFSET 0.072000 7.257294 -0.789700
			CHANNELS 3 Xrotation Yrotation Zrotation
			JOINT Spine1
			{
				OFFSET 0.000000 12.508769 -0.658067
				CHANNELS 3 Xrotation Yrotation Zrotation
				JOINT Spine1_split
				{
					OFFSET 0.000000 12.508769 -0.658067
					CHANNELS 3 Xrotation Yrotation Zrotation
					JOINT Spine2
					{
						OFFSET 0.000000 12.508769 -0.658067
						CHANNELS 3 Xrotation Yrotation Zrotation
						JOINT Neck_virtual
						{
							OFFSET 0.000000 0.000000 0.000000
							CHANNELS 3 Xrotation Yrotation Zrotation
							JOINT Neck
							{
								OFFSET 0.000000 14.033295 7.520400
								CHANNELS 3 Xrotation Yrotation Zrotation
								JOINT Head
								{
									OFFSET 0.000000 8.198502 5.703100
									CHANNELS 3 Xrotation Yrotation Zrotation
									JOINT HeadTop_End
									{
										OFFSET 0.000000 17.760803 13.332701
										CHANNELS 3 Xrotation Yrotation Zrotation
										End Site
										{
											OFFSET 0 0 0
										}
									}
								}
							}
						}
						JOINT LeftShoulder_virtual
						{
							OFFSET 0.000000 0.000000 0.000000
							CHANNELS 3 Xrotation Yrotation Zrotation
							JOINT LeftShoulder
							{
								OFFSET 6.292450 5.785301 -0.669000
								CHANNELS 3 Xrotation Yrotation Zrotation
								JOINT LeftShoulder_split
								{
									OFFSET 6.292450 5.785301 -0.669000
									CHANNELS 3 Xrotation Yrotation Zrotation
									JOINT LeftArm
									{
										OFFSET 13.907140 -6.093903 1.965100
										CHANNELS 3 Xrotation Yrotation Zrotation
										JOINT LeftForeArm
										{
											OFFSET 34.140198 0.000000 0.000000
											CHANNELS 3 Xrotation Yrotation Zrotation
											JOINT LeftHand
											{
												OFFSET 40.960209 0.000000 0.000000
												CHANNELS 3 Xrotation Yrotation Zrotation
												End Site
												{
													OFFSET 0 0 0
												}
											}
										}
									}
								}
							}
						}
						JOINT RightShoulder_virtual
						{
							OFFSET 0.000000 0.000000 0.000000
							CHANNELS 3 Xrotation Yrotation Zrotation
							JOINT RightShoulder
							{
								OFFSET -6.292450 5.785301 -0.669000
								CHANNELS 3 Xrotation Yrotation Zrotation
								JOINT RightShoulder_split
								{
									OFFSET -6.292450 5.785301 -0.669000
									CHANNELS 3 Xrotation Yrotation Zrotation
									JOINT RightArm
									{
										OFFSET -13.907140 -6.093903 1.965100
										CHANNELS 3 Xrotation Yrotation Zrotation
										JOINT RightForeArm
										{
											OFFSET -34.140198 0.000000 0.000000
											CHANNELS 3 Xrotation Yrotation Zrotation
											JOINT RightHand
											{
												OFFSET -40.960209 0.000000 0.000000
												CHANNELS 3 Xrotation Yrotation Zrotation
												End Site
												{
													OFFSET 0 0 0
												}
											}
										}
									}
								}
							}
						}
					}
				}
			}
		}
	}
}
MOTION
Frames: 6
Frame Time: 0.03333333
3.792327 60.837097 -3.495110 0.000000 0.000000 0.000000 178.694537 -8.493319 171.052594 -72.103841 -28.219943 27.875773 110.632331 -15.817292 -3.930703 -24.048442 2.125678 -9.485245 -15.216222 -0.411915 0.149589 0.000000 0.000000 0.000000 178.741256 -6.330909 171.310652 -37.766291 4.810731 -28.900733 94.964676 12.333916 -0.466936 -37.826441 -8.693092 19.154905 -4.579580 -1.092559 0.772964 0.000000 0.000000 0.000000 179.149510 -7.287360 170.284594 7.617595 4.290523 -2.553312 7.523896 7.157797 -3.797968 0.574887 -2.993041 0.689270 0.000000 0.000000 0.000000 7.706321 6.646993 -3.649222 -4.603759 23.461809 7.476103 6.562546 33.093291 -23.931122 0.000000 0.000000 0.000000 8.340405 7.006120 -3.891905 1.069007 -13.577817 -10.505362 -3.322271 -1.602873 -3.841252 2.757683 2.153456 -31.888565 36.258780 -40.499002 0.914988 0.000000 0.000000 0.000000 7.882023 6.922825 -4.258048 5.281343 -18.254084 13.580370 2.176825 3.318254 -1.868169 12.653083 -13.109059 61.136771 34.531575 49.244107 -8.765956 0.000000 0.000000 0.000000 
3.787597 60.843361 -3.508167 0.000000 0.000000 0.000000 178.650742 -8.530426 171.044766 -72.168639 -28.220050 27.858863 110.613657 -15.824008 -3.930989 -24.029896 2.118133 -9.469175 -15.162993 -0.410991 0.146206 0.000000 0.000000 0.000000 178.695849 -6.360323 171.308617 -37.792649 4.760845 -28.928658 94.974552 12.345946 -0.472557 -37.842287 -8.678245 19.138861 -4.577994 -1.092742 0.774478 0.000000 0.000000 0.000000 179.103625 -7.313634 170.274471 7.590843 4.292066 -2.546355 7.485045 7.153688 -3.801305 0.572461 -2.994799 0.689334 0.000000 0.000000 0.000000 7.662735 6.642980 -3.651190 -4.659541 23.469587 7.466481 6.674065 33.081051 -23.932445 0.000000 0.000000 0.000000 8.307824 7.002166 -3.896660 1.068364 -13.614024 -10.506504 -3.301417 -1.598039 -3.835728 2.819080 2.193324 -31.841905 36.239573 -40.591753 0.899061 0.000000 0.000000 0.000000 7.847554 6.920789 -4.263711 5.286676 -18.286744 13.529907 2.174162 3.318863 -1.876418 12.657999 -13.104101 61.232079 34.542425 49.164894 -8.784994 0.000000 0.000000 0.000000 
3.784615 60.849869 -3.520988 0.000000 0.000000 0.000000 178.613039 -8.573335 171.032855 -72.223773 -28.241811 27.837822 110.592804 -15.833620 -3.934385 -24.002086 2.111158 -9.446542 -15.112258 -0.408922 0.138589 0.000000 0.000000 0.000000 178.656917 -6.393141 171.305557 -37.797239 4.709878 -28.955668 94.972640 12.357687 -0.474328 -37.862717 -8.666547 19.123811 -4.563150 -1.092993 0.776548 0.000000 0.000000 0.000000 179.062684 -7.345788 170.260811 7.561556 4.296893 -2.536910 7.452839 7.153391 -3.804666 0.567059 -2.999426 0.691503 0.000000 0.000000 0.000000 7.626605 6.642270 -3.655188 -4.682200 23.479281 7.455125 6.774557 33.077343 -23.949408 0.000000 0.000000 0.000000 8.282619 7.000932 -3.902449 1.067640 -13.659132 -10.508132 -3.279719 -1.586658 -3.825425 2.878669 2.256110 -31.784504 36.219957 -40.708023 0.890477 0.000000 0.000000 0.000000 7.818862 6.921763 -4.270288 5.290821 -18.324826 13.481240 2.168703 3.320327 -1.886986 12.657119 -13.095424 61.333378 34.543986 49.073693 -8.796080 0.000000 0.000000 0.000000 
3.784067 60.850574 -3.530609 0.000000 0.000000 0.000000 178.583260 -8.621360 171.018156 -72.282219 -28.292587 27.814086 110.578365 -15.850214 -3.933657 -23.949848 2.098544 -9.424984 -15.077323 -0.405926 0.127864 0.000000 0.000000 0.000000 178.626413 -6.431662 171.301199 -37.774423 4.653901 -28.980670 94.959287 12.366797 -0.469938 -37.889614 -8.660881 19.109093 -4.538376 -1.092843 0.779392 0.000000 0.000000 0.000000 179.028083 -7.385128 170.243121 7.534712 4.305036 -2.525010 7.429024 7.157649 -3.805764 0.560329 -2.995942 0.689640 0.000000 0.000000 0.000000 7.598426 6.645858 -3.658642 -4.666980 23.488913 7.435971 6.862102 33.081564 -23.984358 0.000000 0.000000 0.000000 8.266149 7.003107 -3.906677 1.067143 -13.715616 -10.510211 -3.261465 -1.566439 -3.814110 2.933806 2.346729 -31.720201 36.200027 -40.844880 0.889719 0.000000 0.000000 0.000000 7.797560 6.926658 -4.275109 5.295111 -18.362383 13.433771 2.165523 3.326244 -1.903330 12.661397 -13.080509 61.441124 34.531326 48.959961 -8.795280 0.000000 0.000000 0.000000 
3.786614 60.838997 -3.536133 0.000000 0.000000 0.000000 178.561349 -8.677538 171.002638 -72.358812 -28.371865 27.785283 110.575852 -15.875154 -3.926105 -23.871557 2.078531 -9.408565 -15.047815 -0.401674 0.112292 0.000000 0.000000 0.000000 178.604939 -6.477346 171.294232 -37.724545 4.593554 -29.002595 94.943803 12.373014 -0.460718 -37.924523 -8.662372 19.095081 -4.512393 -1.091748 0.782267 0.000000 0.000000 0.000000 179.002046 -7.432805 170.223190 7.515865 4.315488 -2.511921 7.416471 7.167030 -3.802062 0.549496 -2.990240 0.688068 0.000000 0.000000 0.000000 7.579481 6.654247 -3.658907 -4.612215 23.497695 7.403882 6.938165 33.094018 -24.041622 0.000000 0.000000 0.000000 8.259942 7.008727 -3.906136 1.066998 -13.783842 -10.514535 -3.250502 -1.539878 -3.800707 2.979620 2.463181 -31.652855 36.180994 -41.007903 0.900016 0.000000 0.000000 0.000000 7.785484 6.935731 -4.275191 5.300013 -18.397348 13.383733 2.166154 3.333604 -1.926434 12.673471 -13.057903 61.558029 34.503513 48.825976 -8.785016 0.000000 0.000000 0.000000 
3.791271 60.811287 -3.536888 0.000000 0.000000 0.000000 178.547306 -8.743274 170.988062 -72.462904 -28.472989 27.747678 110.585551 -15.906491 -3.912619 -23.775772 2.053061 -9.399477 -15.005545 -0.395860 0.091390 0.000000 0.000000 0.000000 178.591688 -6.531660 171.285954 -37.649768 4.534350 -29.020121 94.937143 12.376769 -0.449687 -37.969056 -8.672173 19.086144 -4.496136 -1.089926 0.784537 0.000000 0.000000 0.000000 178.985872 -7.487658 170.201743 7.509039 4.327402 -2.499270 7.418274 7.181187 -3.792226 0.541920 -2.979869 0.682569 0.000000 0.000000 0.000000 7.573026 6.666816 -3.654322 -4.519936 23.505275 7.354992 7.009219 33.116124 -24.126433 0.000000 0.000000 0.000000 8.266277 7.017768 -3.898831 1.067272 -13.861854 -10.521293 -3.245825 -1.512316 -3.787234 3.007361 2.596744 -31.583737 36.163451 -41.205510 0.924112 0.000000 0.000000 0.000000 7.785126 6.948789 -4.268669 5.306044 -18.431172 13.327657 2.166129 3.337742 -1.957084 12.688575 -13.032937 61.681929 34.463116 48.684332 -8.771927 0.000000 0.000000 0.000000 
